<svg xmlns="http://www.w3.org/2000/svg" viewBox="315 355 685 515">
<path d="M0 0 C0.80078476 -0.00730133 1.60156952 -0.01460266 2.42662048 -0.02212524 C5.06068078 -0.03827264 7.69225472 -0.01117882 10.32617188 0.01806641 C12.16410317 0.01910444 14.00203671 0.01806583 15.83996582 0.01504517 C19.68678051 0.01522432 23.53275437 0.03602073 27.37939453 0.07226562 C32.30243439 0.11764114 37.22424661 0.11872586 42.14743805 0.10523033 C45.94113007 0.09853716 49.73454381 0.11183607 53.52818298 0.1314888 C55.34299766 0.13916977 57.15784336 0.14149878 58.97267151 0.13831711 C61.51232537 0.13757264 64.05042432 0.1628973 66.58984375 0.1953125 C67.70751381 0.18788025 67.70751381 0.18788025 68.84776306 0.18029785 C73.93859144 0.28365038 76.87424127 1.52978156 80.79492188 4.74462891 C82.30552124 7.76582763 81.92833473 10.88499866 81.91517639 14.19827271 C81.91603082 14.9758565 81.91688524 15.7534403 81.91776556 16.55458724 C81.91941971 19.17410985 81.91390004 21.79356918 81.90844727 24.41308594 C81.90816535 26.2852783 81.90832321 28.15747078 81.90888977 30.02966309 C81.90917759 35.12443311 81.90328336 40.21917976 81.89631581 45.31394434 C81.8900797 50.63376403 81.88947827 55.9535842 81.88829041 61.27340698 C81.88517785 71.35272986 81.87696548 81.43204194 81.86694092 91.51136005 C81.85577743 102.98397992 81.85026873 114.4566003 81.84524548 125.92922425 C81.83478281 149.53436513 81.81718483 173.13949642 81.79492188 196.74462891 C82.45492187 196.74462891 83.11492187 196.74462891 83.79492188 196.74462891 C83.79492188 196.08462891 83.79492188 195.42462891 83.79492188 194.74462891 C84.45492187 194.74462891 85.11492187 194.74462891 85.79492188 194.74462891 C86.02824219 194.18259766 86.2615625 193.62056641 86.50195312 193.04150391 C88.11429264 190.17728749 90.11427808 188.2721087 92.48242188 185.99462891 C95.50333703 183.0383553 98.43757358 180.09447455 101.16992188 176.86962891 C104.20922932 173.31176663 107.46856208 170.030212 110.79492188 166.74462891 C114.07960499 163.50011312 117.30226214 160.26540507 120.29492188 156.74462891 C123.28758228 153.22385196 126.51024838 149.98915361 129.79492188 146.74462891 C133.05874802 143.52064803 136.26322329 140.30945043 139.23242188 136.80712891 C142.92102353 132.46599821 146.98735945 128.5262855 151.03466797 124.52441406 C154.49862311 121.08442402 157.76609572 117.55917946 160.92382812 113.83447266 C163.93505016 110.47120796 167.17766317 107.34206523 170.38842773 104.1706543 C173.7658939 100.81864242 176.93748661 97.36239427 180.02148438 93.73681641 C182.18605606 91.3052491 184.47921641 89.03251809 186.79492188 86.74462891 C189.64355195 83.93006317 192.400215 81.11727639 194.98242188 78.05712891 C198.53296487 73.89646874 202.41150794 70.09048111 206.29492188 66.24462891 C210.72529758 61.85706393 215.03799239 57.4667618 219.06054688 52.69775391 C221.81556179 49.59525963 224.79895761 46.72052995 227.7512207 43.80786133 C230.35662257 41.22392149 232.85567714 38.60227369 235.23242188 35.80712891 C238.72934088 31.70351551 242.54876472 27.96313254 246.38134766 24.17773438 C249.82141115 20.76367451 253.05978027 17.23959355 256.21289062 13.55712891 C266.12381513 2.20239071 266.12381513 2.20239071 272.81993335 1.36743075 C274.52550493 1.36588705 274.52550493 1.36588705 276.26553249 1.36431217 C277.58154428 1.35587223 278.89755607 1.34743229 280.253447 1.33873659 C281.71237704 1.34453175 283.17130597 1.35061278 284.63023376 1.35694885 C286.18120175 1.35277648 287.73216668 1.34729949 289.28312594 1.34062904 C293.54729793 1.32614301 297.81127715 1.33042897 302.07545984 1.33779585 C306.67336694 1.34251742 311.27123173 1.33002666 315.86912537 1.31977844 C324.87756235 1.30256533 333.88592967 1.30175562 342.89437883 1.30699135 C350.2149636 1.31102955 357.53552775 1.30959366 364.85611153 1.30424309 C366.41780059 1.30312045 366.41780059 1.30312045 368.01103892 1.30197514 C370.12594887 1.3004437 372.24085881 1.29890535 374.35576875 1.29736017 C394.1975964 1.28362609 414.03938465 1.28907925 433.88121141 1.30054539 C452.04135215 1.31047913 470.20139102 1.29753626 488.36151605 1.2736112 C507.00013847 1.24924038 525.6387134 1.23960733 544.27735144 1.24626392 C554.74483137 1.24976058 565.21223294 1.24749463 575.67970085 1.23001289 C584.59028635 1.21531615 593.50073829 1.21462234 602.4113211 1.2320838 C606.95890621 1.24061698 611.5062525 1.24268701 616.05382538 1.22743225 C620.2156979 1.21364397 624.37712568 1.21827227 628.53897209 1.23767149 C630.04564756 1.24144989 631.55235817 1.23845679 633.05900251 1.22805984 C635.10545661 1.21494049 637.15203065 1.22882631 639.19847012 1.24405766 C640.33568018 1.24416499 641.47289025 1.24427233 642.64456123 1.24438292 C646.55478875 1.86528822 648.71550021 3.2969422 651.79492188 5.74462891 C658.80264307 16.2562107 651.9893504 37.61106807 650.31201172 49.10546875 C649.56362601 54.37243634 648.91620219 59.64885505 648.29492188 64.93212891 C648.17785889 65.92535156 648.0607959 66.91857422 647.94018555 67.94189453 C647.69292172 70.05002181 647.44661752 72.15826182 647.20117188 74.26660156 C646.74766867 78.14917772 646.28726698 82.03091801 645.82617188 85.91259766 C645.48207813 88.81490075 645.13843859 91.71725746 644.79492188 94.61962891 C644.70937042 95.34167511 644.62381897 96.06372131 644.53567505 96.80764771 C643.64691767 104.31947089 642.77599315 111.83182429 641.97851562 119.35400391 C641.78805664 121.13701904 641.78805664 121.13701904 641.59375 122.95605469 C641.36409156 125.12570629 641.13954553 127.29590981 640.921875 129.46679688 C640.33093083 135.0436059 639.48388763 140.49563245 638.390625 145.99707031 C636.66887367 154.94524849 635.53350177 163.93440865 634.45507812 172.97900391 C634.24514737 174.70840246 634.03480495 176.43775109 633.82408142 178.16705322 C633.38484124 181.7804276 632.94896442 185.39418481 632.51586914 189.00830078 C631.97498122 193.52161311 631.4281692 198.03417961 630.87908363 202.54650116 C628.36470246 223.21736161 625.95632924 243.89793725 623.68725586 264.59716797 C623.61515805 265.25386349 623.54306025 265.91055901 623.46877766 266.58715439 C623.06687453 270.25098178 622.66853625 273.9151673 622.27322388 277.57971191 C622.09699868 279.19816674 621.92072015 280.81661577 621.74438477 282.43505859 C621.6643518 283.18438786 621.58431883 283.93371712 621.50186062 284.70575333 C621.07901742 288.56812296 620.55755904 292.37207321 619.79492188 296.18212891 C618.83180423 301.05744536 618.33640197 305.92882913 617.85742188 310.86962891 C617.26671893 316.91120412 616.49650995 322.844829 615.35742188 328.80712891 C613.98488836 336.06481407 613.06510392 343.34398664 612.23242188 350.68212891 C612.10254883 351.81166992 611.97267578 352.94121094 611.83886719 354.10498047 C611.30178702 358.8641459 610.78174078 363.61529116 610.44335938 368.39306641 C608.90798526 388.57260291 603.13963718 409.30697522 592.79492188 426.74462891 C592.16972656 427.85064453 591.54453125 428.95666016 590.90039062 430.09619141 C573.63075548 459.57063998 547.28351289 481.1443973 514.79492188 491.74462891 C513.59867188 492.13521484 512.40242187 492.52580078 511.16992188 492.92822266 C496.46367883 497.40903108 482.10147029 498.0874915 466.86132812 498.15087891 C465.47049169 498.15936104 465.47049169 498.15936104 464.05155754 498.16801453 C459.16106959 498.19774055 454.27069607 498.21637083 449.38012695 498.22509766 C444.34744984 498.23613804 439.31583555 498.28441207 434.283494 498.34104156 C430.38948957 498.37831422 426.49574358 498.3887057 422.60157585 498.39176941 C420.74564632 498.39780156 418.88972022 498.41378819 417.03396797 498.44013977 C414.4424664 498.47436732 411.85360053 498.47048419 409.26196289 498.45751953 C408.50496094 498.4759491 407.74795898 498.49437866 406.96801758 498.5133667 C401.74331419 498.43174858 399.08773012 496.94186615 395.30354214 493.36928558 C392.70777693 490.57386557 390.44776366 487.59556386 388.23242188 484.49462891 C387.18848502 483.06764932 386.14284485 481.64191462 385.09570312 480.21728516 C384.5563916 479.4813916 384.01708008 478.74549805 383.46142578 477.98730469 C380.68312728 474.24844591 377.79765626 470.59462696 374.91992188 466.93212891 C369.4977439 460.00740167 364.24829371 452.97229155 359.06079102 445.87060547 C354.92509805 440.22780349 350.67307849 434.68819228 346.35742188 429.18212891 C344.16611383 426.37257403 341.9789379 423.55985511 339.79492188 420.74462891 C338.99183594 419.70951172 338.18875 418.67439453 337.36132812 417.60791016 C336.72066406 416.74552734 336.08 415.88314453 335.41992188 414.99462891 C334.8965625 414.29853516 334.37320312 413.60244141 333.83398438 412.88525391 C332.38256493 409.89511159 332.28107943 408.02985109 332.79492188 404.74462891 C334.44524151 402.17446165 335.1898387 401.17482987 337.79492188 399.74462891 C342.19757272 398.98919289 346.56649068 399.08608243 351.02368164 399.1328125 C352.38424916 399.12926941 353.74481241 399.12348963 355.10536194 399.11564636 C358.03184751 399.10347794 360.95774987 399.10692213 363.88421822 399.12247849 C368.52136192 399.14684444 373.15799779 399.13527792 377.79515076 399.11880493 C385.97599359 399.09431228 394.15660509 399.10010335 402.33746338 399.11260986 C414.62653455 399.13117313 426.91555898 399.12618401 439.20459789 399.09257567 C443.80349333 399.08113124 448.40201575 399.08540678 453.0008899 399.10259604 C455.87826077 399.11056063 458.75552593 399.10620019 461.63289452 399.09888649 C463.57956312 399.0977053 465.52622346 399.11143418 467.47283936 399.12580872 C481.06310163 399.06499921 491.06954577 396.36637985 501.41992188 387.49462891 C513.24452002 373.80298895 515.50876759 359.86232894 517.54492188 342.43212891 C517.79430847 340.37980021 518.04508269 338.32763973 518.29711914 336.27563477 C518.84370819 331.8182806 519.38456917 327.36027883 519.92236328 322.90185547 C521.2209182 312.19030062 522.59970232 301.48890021 523.96849728 290.78614235 C524.90790283 283.43961501 525.84048511 276.09222575 526.77148438 268.74462891 C526.85553339 268.08137478 526.93958241 267.41812065 527.02617836 266.73476791 C529.59324998 246.47151654 532.12493918 226.20381439 534.64900208 205.93516541 C535.25648371 201.05751003 535.8652944 196.18003726 536.47949219 191.30322266 C538.098945 178.43084273 539.67508785 165.55338963 541.24023438 152.67431641 C541.40272328 151.33770745 541.40272328 151.33770745 541.5684948 149.9740963 C542.58400285 141.62055569 543.59908455 133.26696362 544.61181641 124.91308594 C545.17175098 120.2946824 545.73297716 115.67643736 546.29504013 111.05829239 C546.50682753 109.31609079 546.71813146 107.57383035 546.92892838 105.83150864 C547.22174357 103.41161087 547.51620431 100.99191852 547.81103516 98.57226562 C547.93883362 97.51103989 547.93883362 97.51103989 548.06921387 96.42837524 C548.5481616 92.51373064 549.13533775 88.63242127 549.79492188 84.74462891 C519.87508162 84.48386557 489.95569604 84.31081172 460.03476909 84.25870058 C456.49534598 84.2524595 452.95592469 84.24547746 449.41650391 84.23803711 C448.71192517 84.23656845 448.00734644 84.23509978 447.28141683 84.23358662 C435.90086445 84.20810091 424.52152056 84.1227123 413.14148492 84.01483678 C401.44786376 83.9053352 389.75527811 83.861015 378.06114817 83.87609154 C371.49883988 83.88176565 364.93971095 83.85798018 358.3780365 83.76202202 C352.1910881 83.67249711 346.00911851 83.66395574 339.82178688 83.71539688 C337.56112039 83.72030713 335.30016527 83.69655683 333.04018211 83.64076042 C319.54747761 83.24642552 319.54747761 83.24642552 308.014328 89.43388557 C304.5081675 92.93940945 301.43334998 96.70261652 298.44530773 100.65312111 C295.9601342 103.80254208 293.13041636 106.54272693 290.23242188 109.30712891 C286.47386906 113.00240206 282.91778673 116.80461985 279.50195312 120.81884766 C276.80027436 123.86673697 273.86904487 126.67822521 270.97070312 129.53759766 C269.04994803 131.48593989 267.25449382 133.47462099 265.48242188 135.55712891 C262.41991983 139.13361731 259.14211571 142.43852384 255.79492188 145.74462891 C252.51023556 148.98914172 249.28758139 152.22385301 246.29492188 155.74462891 C242.81948638 159.83337655 239.0139195 163.55279575 235.19946289 167.32055664 C231.84431294 170.65045221 228.69766736 174.0839429 225.63476562 177.68603516 C222.83863172 180.81461811 219.83166003 183.72860499 216.84594727 186.67407227 C213.57455121 189.91843664 210.5252115 193.28089227 207.53710938 196.78369141 C204.82326065 199.83829243 201.88628436 202.66124433 198.97851562 205.52978516 C197.01517517 207.52122351 195.17412518 209.55765469 193.35742188 211.68212891 C190.6387294 214.85498811 187.76740513 217.80801272 184.79492188 220.74462891 C179.72925504 225.75624137 174.75712684 230.80132145 170.79492188 236.74462891 C171.46974609 237.58380859 171.46974609 237.58380859 172.15820312 238.43994141 C181.0828013 249.56439044 189.85264122 260.80838869 198.60205078 272.07080078 C202.15279558 276.63950986 205.71541656 281.19842494 209.29492188 285.74462891 C215.22196366 293.27401728 221.10042997 300.84095039 226.97900391 308.40820312 C228.80049496 310.75179944 230.62360964 313.09412318 232.44726562 315.43603516 C239.25847729 324.18384892 246.044914 332.94950275 252.79492188 341.74462891 C254.4610144 343.91173737 256.12794286 346.0782023 257.79492188 348.24462891 C260.24964303 351.43481496 262.70356605 354.62559408 265.15429688 357.81884766 C268.79350601 362.55814452 272.43828109 367.29232935 276.11523438 372.00244141 C281.73725889 379.20478236 287.33453134 386.41866594 292.79492188 393.74462891 C299.89553946 403.26774052 307.21645315 412.61719339 314.53759766 421.97119141 C321.91167467 431.39535758 329.17132616 440.89136262 336.32324219 450.48535156 C340.12156633 455.56330913 343.9962899 460.56299222 347.98242188 465.49462891 C349.92340991 467.90851461 351.86048813 470.32548798 353.79492188 472.74462891 C354.34937988 473.43637207 354.90383789 474.12811523 355.47509766 474.84082031 C357.18116824 476.98412264 358.86517962 479.14315682 360.54492188 481.30712891 C361.33419067 482.28987793 361.33419067 482.28987793 362.1394043 483.29248047 C364.45217505 486.30775193 365.70282584 488.22254393 366.37304688 492.02197266 C365.79492188 494.74462891 365.79492188 494.74462891 364.04411697 496.39014435 C361.5090465 497.9167855 360.16148424 498.12519546 357.22967529 498.13903809 C356.31859512 498.15038788 355.40751495 498.16173767 354.46882629 498.1734314 C353.47654526 498.17050079 352.48426422 498.16757019 351.46191406 498.16455078 C350.41104111 498.17302032 349.36016815 498.18148987 348.27745056 498.19021606 C344.79877661 498.21363977 341.32054378 498.21460669 337.84179688 498.21337891 C335.4228701 498.22047871 333.00394502 498.22817744 330.58502197 498.2364502 C325.51089806 498.24990846 320.43692975 498.25145833 315.36279297 498.24560547 C308.86830715 498.23971717 302.37457089 498.27025973 295.88022995 498.31072235 C290.88212072 498.33660916 285.88419151 498.33947565 280.88602448 498.33583069 C278.49228283 498.33752191 276.09853286 498.34716453 273.70485687 498.36497498 C270.35123555 498.38717598 266.99912517 498.37745433 263.64550781 498.35986328 C262.6613237 498.37312653 261.67713959 498.38638977 260.66313171 498.40005493 C254.16655244 498.32110646 249.80184995 496.97069975 244.79492188 492.74462891 C242.7442901 490.53635352 241.01017241 488.22027393 239.29492188 485.74462891 C238.26508057 484.31652867 237.23375031 482.88950133 236.20117188 481.46337891 C235.65589844 480.70283203 235.110625 479.94228516 234.54882812 479.15869141 C231.37742653 474.79359968 228.07767183 470.5262061 224.79492188 466.24462891 C220.10107781 460.09803348 215.42518913 453.93926161 210.79492188 447.74462891 C201.81231989 435.73121099 192.70922913 423.80742095 183.54492188 411.93212891 C179.39497795 406.5497352 175.31667161 401.11623693 171.24609375 395.67382812 C167.4086149 390.54861292 163.51787591 385.46677604 159.60742188 380.39697266 C150.23332573 368.23477217 140.94964103 356.01181608 131.87182617 343.62670898 C128.08980504 338.47595639 124.25031471 333.37454004 120.35742188 328.30712891 C110.42157004 315.37354752 100.66331707 302.30744304 90.98242188 289.18212891 C90.38953369 288.37855957 89.79664551 287.57499023 89.18579102 286.74707031 C88.63785889 286.00247559 88.08992676 285.25788086 87.52539062 284.49072266 C87.04481201 283.83773193 86.5642334 283.18474121 86.0690918 282.51196289 C84.94168578 280.94819739 83.86427206 279.34865418 82.79492188 277.74462891 C82.79437711 278.84291865 82.79383234 279.9412084 82.79327106 281.07277966 C82.77888463 307.7792635 82.7359053 334.48558417 82.66283131 361.19197369 C82.62815748 374.10692425 82.60282264 387.02176782 82.59936523 399.93676758 C82.59632868 411.1916444 82.57587968 422.44633079 82.5343973 433.70113403 C82.51303775 439.66218383 82.50048198 445.62296268 82.50876808 451.58405113 C82.51628934 457.19264486 82.50056341 462.80068871 82.46686172 468.40918159 C82.45860526 470.4695257 82.45890565 472.52992425 82.46832466 474.59026337 C82.47990196 477.40052418 82.46089679 480.20896945 82.43415833 483.01908875 C82.44483158 483.83718747 82.45550484 484.6552862 82.46650153 485.4981758 C82.39061016 489.7641205 82.16584483 491.28648067 79.3799696 494.72747517 C75.23471813 497.96208063 72.23060823 497.90856705 67.13574219 497.9375 C66.3452951 497.94567749 65.55484802 497.95385498 64.740448 497.96228027 C62.11798869 497.98714297 59.49558359 498.00365353 56.87304688 498.01806641 C55.97769981 498.02339008 55.08235275 498.02871376 54.15987396 498.03419876 C49.41974239 498.06093567 44.67963719 498.08030779 39.93945312 498.09472656 C35.04549323 498.11136509 30.15220797 498.1561344 25.25850296 498.20709801 C21.49407182 498.24077312 17.72980065 498.25230433 13.96523285 498.25795364 C12.16151531 498.26466668 10.35780832 498.27989018 8.55423737 498.30384445 C6.02616135 498.33550218 3.49990229 498.33553231 0.97167969 498.328125 C0.22963287 498.34453033 -0.51241394 498.36093567 -1.27694702 498.37783813 C-7.01375057 498.30920555 -9.33113248 496.67487247 -13.20507812 492.74462891 C-14.75621014 489.64236488 -14.34892103 486.36160581 -14.34488583 482.95648575 C-14.34783725 482.13880278 -14.35078867 481.3211198 -14.35382953 480.47865856 C-14.36256594 477.70909039 -14.36410528 474.93956376 -14.3657074 472.16998291 C-14.37043526 470.17612856 -14.37558574 468.18227518 -14.38112503 466.18842292 C-14.39506974 460.68616577 -14.4026256 455.18391526 -14.40909803 449.68164492 C-14.41545774 444.96805211 -14.42552938 440.25447027 -14.43565869 435.54088429 C-14.46902211 420.00891063 -14.49055067 404.4769278 -14.50885853 388.94493067 C-14.5136251 384.90275624 -14.51863397 380.86058213 -14.52366376 376.81840801 C-14.55470736 351.7369268 -14.58133078 326.65544296 -14.59808254 301.57394791 C-14.60201991 295.76137538 -14.60603173 289.9488029 -14.61010742 284.13623047 C-14.61060909 283.41407693 -14.61111076 282.6919234 -14.61162763 281.94788642 C-14.62804968 258.5282635 -14.66651128 235.10874499 -14.71739453 211.68917345 C-14.76959109 187.6213371 -14.80239343 163.55355635 -14.80966007 139.48566224 C-14.81068871 136.0878103 -14.81192503 132.68995846 -14.81328011 129.29210663 C-14.81353814 128.62335933 -14.81379618 127.95461204 -14.81406204 127.26559968 C-14.81846985 117.16124477 -14.83976593 107.05701341 -14.87002373 96.95270538 C-14.90424969 85.46189557 -14.91829319 73.97128971 -14.90559959 62.48043182 C-14.89975544 56.61433734 -14.90376025 50.74867461 -14.93376923 44.88264465 C-14.96100056 39.51594219 -14.96073219 34.14998093 -14.93825877 28.78326294 C-14.93501887 26.83839965 -14.94200225 24.89348789 -14.960056 22.9487057 C-14.98307063 20.31027192 -14.96929886 17.67451031 -14.94615841 15.03613663 C-14.96163464 14.27596721 -14.97711088 13.51579779 -14.99305609 12.73259294 C-14.91291409 8.61031958 -14.17152251 6.21933729 -11.39827019 3.2731874 C-7.99383631 0.08655857 -4.50507676 -0.09243057 0 0 Z " fill="#FFFFFF" transform="translate(336.205078125,361.25537109375)"/><path d="M0 0 C0.97378288 -0.00598097 1.94756577 -0.01196195 2.95085722 -0.01812416 C6.20526945 -0.02963055 9.4571406 0.00880216 12.71131897 0.04710388 C15.04729655 0.0490789 17.38327848 0.0479691 19.71925354 0.04400635 C26.05579483 0.04199789 32.3914086 0.08315354 38.72773433 0.13202405 C44.68020824 0.1713483 50.63264664 0.1783877 56.58523292 0.18558716 C68.3723908 0.20089271 80.15920882 0.24743643 91.94618225 0.31370544 C103.39343063 0.37799737 114.84058656 0.42752719 126.28797913 0.45726013 C126.99405801 0.4590992 127.7001369 0.46093826 128.42761212 0.46283305 C131.96994198 0.47196858 135.5122725 0.48081447 139.05460346 0.48951638 C168.42354865 0.56203707 197.79216162 0.68581016 227.16078186 0.84178162 C227.16078186 2.82178162 227.16078186 4.80178162 227.16078186 6.84178162 C226.83078186 6.18178162 226.50078186 5.52178162 226.16078186 4.84178162 C225.50078186 4.84178162 224.84078186 4.84178162 224.16078186 4.84178162 C224.16078186 3.85178162 224.16078186 2.86178162 224.16078186 1.84178162 C194.58001878 1.83245106 164.99940171 1.85367914 135.41870486 1.91757191 C131.92648099 1.92508796 128.43425662 1.93234344 124.94203186 1.93943787 C124.24679248 1.94085462 123.5515531 1.94227137 122.83524586 1.94373105 C111.5778182 1.96604994 100.32048219 1.96726017 89.06303857 1.96067025 C77.51192922 1.95437825 65.96104737 1.97121577 54.40999138 2.00821769 C47.9218158 2.02826765 41.43400827 2.03775825 34.94581223 2.02220535 C28.84059792 2.0079008 22.73608776 2.02153904 16.63096428 2.05673409 C14.38881753 2.06471154 12.14660748 2.06242542 9.9044857 2.04917336 C6.84478181 2.0326164 3.78744665 2.0528332 0.72789001 2.08229065 C-0.16122389 2.06870455 -1.05033779 2.05511845 -1.96639454 2.04112065 C-6.58600479 2.12766884 -9.08763332 2.56847041 -12.4371624 5.8892498 C-13.22984079 6.8635853 -14.02251919 7.8379208 -14.83921814 8.84178162 C-15.49921814 8.51178162 -16.15921814 8.18178162 -16.83921814 7.84178162 C-11.75557558 1.40153407 -8.09575207 -0.18305381 0 0 Z " fill="#FFFFFF" transform="translate(658.8392181396484,445.15821838378906)"/>
</svg>