<?xml version="1.0" encoding="UTF-8"?>
<svg version="1.1" xmlns="http://www.w3.org/2000/svg" width="1254" height="1254" viewBox="270 390 800 440">
<path d="M0 0 C1.32281982 -0.00788544 1.32281982 -0.00788544 2.67236328 -0.01593018 C5.58050367 -0.0291087 8.48809451 -0.02040042 11.39624023 -0.01025391 C13.4197551 -0.01227508 15.44326925 -0.01518687 17.46678162 -0.01895142 C21.70432481 -0.02337171 25.94167812 -0.01695244 30.17919922 -0.00292969 C35.61231609 0.01417287 41.04498871 0.00431226 46.47808933 -0.01364708 C50.65507866 -0.02448349 54.83196251 -0.0210394 59.008955 -0.0132637 C61.0124409 -0.01126187 63.01593636 -0.01372037 65.01941109 -0.02070236 C67.81788668 -0.02831561 70.61564069 -0.01671483 73.4140625 0 C74.24274338 -0.00607269 75.07142426 -0.01214539 75.92521667 -0.0184021 C79.26781879 0.01861112 81.69666733 0.14084733 84.65093994 1.78041077 C86.64280379 3.92770683 86.73065846 5.11790776 86.74780273 8.03271484 C86.46364996 15.36673381 83.85839727 21.91789899 81.3291626 28.7147522 C75.42961173 44.64518689 70.62211029 60.78722764 66.26733398 77.20068359 C65.99105164 78.24012115 65.71476929 79.27955872 65.43011475 80.35049438 C64.10902096 85.32853951 62.7956391 90.30856271 61.48754883 95.29003906 C59.90736354 101.29705381 58.26584406 107.28493654 56.57983398 113.26318359 C56.33177002 114.14675537 56.08370605 115.03032715 55.828125 115.94067383 C54.20144501 121.70744355 52.54563247 127.46575025 50.8868866 133.22335815 C49.77119629 137.09718774 48.65805599 140.97174905 47.54470825 144.84625244 C46.71715376 147.72039631 45.88483846 150.59313247 45.05224609 153.46582031 C44.54171931 155.23936546 44.03137573 157.01296336 43.52124023 158.78662109 C43.28100128 159.61037231 43.04076233 160.43412354 42.79324341 161.28283691 C41.89923655 164.40444563 41.14233398 167.12356982 41.14233398 170.38818359 C48.01831 164.05718376 54.87790868 157.70957659 61.70483398 151.32568359 C67.16973938 146.21701837 72.66432643 141.14317578 78.18530273 136.09521484 C81.32566557 133.22327701 84.45372213 130.33811826 87.57983398 127.45068359 C88.1201123 126.95165527 88.66039062 126.45262695 89.21704102 125.93847656 C90.31181704 124.92713688 91.40654349 123.91574351 92.5012207 122.90429688 C95.75472787 119.89860222 99.00997274 116.89478965 102.26489258 113.890625 C104.98633371 111.37871437 107.70735148 108.86634831 110.42749023 106.35302734 C115.61395051 101.56184359 120.80635769 96.77770408 126.01733398 92.01318359 C130.67248057 87.75316881 135.28712717 83.45208007 139.89233398 79.13818359 C144.17759023 75.12561579 148.4897257 71.17173333 152.93920898 67.34130859 C156.81785795 63.90279001 160.57875494 60.33665759 164.36181641 56.79370117 C171.86446568 49.7685356 179.42887207 42.81440827 187.07983398 35.95068359 C190.92152256 32.50238393 194.72590684 29.01644217 198.51733398 25.51318359 C199.34068237 24.75606079 199.34068237 24.75606079 200.18066406 23.98364258 C202.89963903 21.47998459 205.59628968 18.95925031 208.25170898 16.38818359 C219.40571774 5.68815879 229.79712336 0.05479926 245.38012695 0.16113281 C246.50266373 0.16084076 247.6252005 0.16054871 248.78175354 0.1602478 C252.48275551 0.16163832 256.18355479 0.17718672 259.88452148 0.19287109 C262.45427338 0.1966022 265.02402669 0.19944871 267.59378052 0.20144653 C273.66037412 0.208296 279.7268844 0.22405022 285.79344666 0.24414551 C292.70275488 0.26653347 299.61206663 0.27750521 306.52140212 0.28753638 C320.72841825 0.30841734 334.93537354 0.34357519 349.14233398 0.38818359 C348.47789223 4.20628518 347.94014007 6.09182712 345.07983398 8.76318359 C344.44303711 9.36388672 343.80624023 9.96458984 343.15014648 10.58349609 C340.60312654 12.87284087 338.03692511 15.13634193 335.44311523 17.37255859 C332.63460333 19.83298668 329.88773212 22.35795144 327.14233398 24.88818359 C323.20967018 28.50928287 319.24018894 32.07777711 315.20092773 35.57958984 C312.65276749 37.8182961 310.14822806 40.10228571 307.64233398 42.38818359 C303.85299272 45.84393773 300.03149701 49.25341249 296.16186523 52.61865234 C292.11566367 56.16397016 288.13579692 59.78373379 284.14233398 63.38818359 C282.49663155 64.86749589 280.85079864 66.34666306 279.20483398 67.82568359 C275.62993638 71.04140781 272.07060275 74.27358269 268.51733398 77.51318359 C265.43923833 80.3157574 262.34931528 83.09786234 259.20483398 85.82568359 C255.30675325 89.21358607 251.50550615 92.70409318 247.70507812 96.20043945 C243.73379088 99.85247736 239.72868082 103.46506216 235.71264648 107.06787109 C232.79804925 109.69898167 229.90695989 112.35472776 227.01733398 115.01318359 C223.14870503 118.570767 219.23899135 122.07108055 215.26733398 125.51318359 C212.5240998 127.93368434 209.8334883 130.41019002 207.14233398 132.88818359 C203.23251803 136.48831116 199.28366931 140.03235965 195.26733398 143.51318359 C192.5240998 145.93368434 189.8334883 148.41019002 187.14233398 150.88818359 C183.23251803 154.48831116 179.28366931 158.03235965 175.26733398 161.51318359 C171.99696115 164.39880668 168.7987529 167.36285007 165.59057617 170.31713867 C161.50028546 174.07703962 157.35085476 177.76142892 153.14233398 181.38818359 C154.63697069 184.58033013 156.43810096 187.39173363 158.45092773 190.28271484 C159.10996094 191.23065918 159.76899414 192.17860352 160.44799805 193.15527344 C161.50325684 194.66275146 161.50325684 194.66275146 162.57983398 196.20068359 C163.66409668 197.75456787 163.66409668 197.75456787 164.77026367 199.33984375 C169.17106823 205.62796533 173.63385354 211.86241122 178.20092773 218.03051758 C183.1223488 224.68419782 187.87023856 231.4585363 192.6262207 238.23095703 C195.12576723 241.78747766 197.63447156 245.33752459 200.14233398 248.88818359 C201.14237872 250.30481868 202.14237871 251.72148536 203.14233398 253.13818359 C203.63733398 253.83943359 204.13233398 254.54068359 204.64233398 255.26318359 C210.14233398 263.05485026 215.64233398 270.84651693 221.14233398 278.63818359 C221.63725342 279.33927246 222.13217285 280.04036133 222.64208984 280.76269531 C223.64308254 282.18086333 224.64389607 283.59915783 225.64453125 285.01757812 C228.12789683 288.53732794 230.61423283 292.05489828 233.10717773 295.56787109 C238.86544503 303.68988911 244.53962261 311.86320879 250.14599609 320.09082031 C254.10118323 325.88769099 258.10999212 331.6447787 262.14233398 337.38818359 C263.30134103 339.04562878 264.46019517 340.70318091 265.61889648 342.36083984 C268.03595865 345.81717104 270.47191384 349.25935341 272.91577148 352.69677734 C274.11676512 354.40608066 275.31730236 356.11570476 276.51733398 357.82568359 C277.08323242 358.61265625 277.64913086 359.39962891 278.23217773 360.21044922 C279.00368164 361.31743164 279.00368164 361.31743164 279.79077148 362.44677734 C280.24629395 363.08929443 280.70181641 363.73181152 281.17114258 364.39379883 C282.37834025 366.87283296 282.38871553 368.66391584 282.14233398 371.38818359 C280.61040538 372.9201122 279.22588019 372.52029725 277.08970642 372.52862549 C276.21640686 372.53433563 275.3431073 372.54004578 274.44334412 372.54592896 C273.47768021 372.54704681 272.5120163 372.54816467 271.51708984 372.54931641 C269.99995895 372.55676376 269.99995895 372.55676376 268.45217896 372.56436157 C265.08717175 372.57903251 261.72221175 372.58579514 258.35717773 372.59130859 C256.02364602 372.5970582 253.69011432 372.60281596 251.35658264 372.60858154 C246.45288878 372.61910707 241.54921139 372.62493884 236.64550781 372.62841797 C230.36973397 372.63389067 224.09417841 372.65788609 217.81847286 372.68638992 C212.99281691 372.70504416 208.16721308 372.71022351 203.34152412 372.71175385 C201.02873103 372.71477714 198.71593879 372.72279471 196.40318108 372.73593903 C193.15973407 372.75304914 189.91681404 372.75110635 186.67333984 372.74462891 C185.72184555 372.75384369 184.77035126 372.76305847 183.7900238 372.77255249 C177.18689009 372.73137412 171.46283885 371.89700949 166.03295898 367.79443359 C161.15741981 362.12952141 157.25285907 355.99658592 153.33422852 349.65551758 C148.66616751 342.12442682 143.75281185 334.7733044 138.76733398 327.45068359 C138.15480774 326.55073166 138.15480774 326.55073166 137.52990723 325.63259888 C130.16209107 314.81823517 122.70586924 304.06670113 115.14233398 293.38818359 C114.47331055 292.44362305 114.47331055 292.44362305 113.79077148 291.47998047 C109.37232781 285.25214344 104.90614832 279.05926239 100.4296875 272.87304688 C99.60682251 271.73585205 99.60682251 271.73585205 98.76733398 270.57568359 C98.21682373 269.81497559 97.66631348 269.05426758 97.09912109 268.27050781 C93.41182146 263.16734126 89.764351 258.0378459 86.14233398 252.88818359 C77.51943529 240.63803454 68.77089166 228.48578581 59.75195312 216.52368164 C53.96249837 208.84109719 48.27193772 201.08575061 42.57763672 193.33251953 C41.5628185 191.95779385 40.52030192 190.60331354 39.45898438 189.26416016 C38.14233398 187.38818359 38.14233398 187.38818359 38.14233398 185.38818359 C37.48233398 185.38818359 36.82233398 185.38818359 36.14233398 185.38818359 C35.90579102 186.40364258 35.66924805 187.41910156 35.42553711 188.46533203 C33.09445515 198.44096526 30.69373672 208.39740669 28.21508789 218.33740234 C27.63929673 220.65038439 27.06856124 222.96458026 26.49780273 225.27880859 C24.56686844 233.05595875 22.47825502 240.72818386 20.06225586 248.37207031 C18.55692501 253.307542 17.35196658 258.3110254 16.14233398 263.32568359 C14.31782505 270.85930152 12.3346929 278.32236241 10.18237305 285.76928711 C8.59492288 291.29294294 7.07738631 296.83528526 5.5652771 302.37997437 C5.19319537 303.74365234 4.82030347 305.10710947 4.44668579 306.47036743 C2.04900264 315.22035723 -0.28033626 323.98452199 -2.52563477 332.77490234 C-2.97127425 334.50866777 -3.41707385 336.24239205 -3.86303711 337.97607422 C-4.51438074 340.50866887 -5.16172526 343.04192058 -5.79595947 345.57885742 C-6.38588605 347.93856372 -6.98965821 350.29435574 -7.59594727 352.64990234 C-7.76547409 353.34540695 -7.93500092 354.04091156 -8.10966492 354.75749207 C-10.05712154 362.2091759 -13.77958623 366.95625041 -19.85766602 371.38818359 C-23.89630536 372.68562189 -27.95713327 372.54333381 -32.15869141 372.54931641 C-32.9932637 372.55428131 -33.827836 372.55924622 -34.68769836 372.56436157 C-37.44358141 372.57894681 -40.19940699 372.58577736 -42.95532227 372.59130859 C-44.87055971 372.59706085 -46.78579714 372.60281857 -48.70103455 372.60858154 C-52.71329008 372.61907963 -56.72552564 372.62493083 -60.73779297 372.62841797 C-65.88514305 372.63391543 -71.0322303 372.65797505 -76.17949772 372.68638992 C-80.13338503 372.70498365 -84.08720844 372.71022004 -88.04113579 372.71175385 C-89.93940107 372.71478578 -91.83766508 372.72283242 -93.73588753 372.73593903 C-96.38614295 372.75293945 -99.03574777 372.75113472 -101.68603516 372.74462891 C-102.47312866 372.75384369 -103.26022217 372.76305847 -104.07116699 372.77255249 C-109.33323226 372.73196129 -109.33323226 372.73196129 -111.8447113 371.08563232 C-114.06692588 367.36177847 -113.21760753 362.97483872 -112.30249023 358.94091797 C-111.52004473 356.15446989 -110.66839254 353.39751522 -109.79516602 350.63818359 C-107.05227367 341.63072106 -104.59017723 332.59790128 -102.35766602 323.45068359 C-100.27271414 314.94566868 -98.08893844 306.49179536 -95.67016602 298.07568359 C-93.25635112 289.67316338 -91.03348761 281.23395261 -88.88891602 272.75927734 C-88.62535812 271.71871689 -88.36180023 270.67815643 -88.09025574 269.60606384 C-86.75812865 264.33860534 -85.43454773 259.06914194 -84.12060547 253.79711914 C-79.8674468 236.84672583 -79.8674468 236.84672583 -76.66552734 228.66040039 C-75.53476691 225.47998717 -74.93894665 222.27188056 -74.34106445 218.95605469 C-73.43727078 214.15499312 -72.18192408 209.43493744 -70.98266602 204.70068359 C-70.71583008 203.64341064 -70.44899414 202.5861377 -70.17407227 201.49682617 C-69.40534107 198.45973449 -68.63207664 195.42383121 -67.85766602 192.38818359 C-67.57487793 191.27008301 -67.57487793 191.27008301 -67.28637695 190.12939453 C-65.19058289 181.86515768 -62.71167532 173.77867654 -60.07739258 165.67553711 C-58.04121879 159.27844972 -56.48588933 152.83909021 -55.15063477 146.26196289 C-54.36518434 142.42891174 -53.30970904 139.00720685 -51.85766602 135.38818359 C-51.06767247 132.42803131 -50.40859747 129.438637 -49.73266602 126.45068359 C-46.91563369 114.32529014 -43.68863403 102.31588985 -40.44816589 90.298172 C-39.20275771 85.67833882 -37.96838788 81.05566567 -36.74047852 76.43115234 C-30.47604311 52.84625527 -30.47604311 52.84625527 -27.72021484 43.18505859 C-26.44023181 38.64824766 -25.28657563 34.09021003 -24.17407227 29.50927734 C-23.87380127 28.29328857 -23.57353027 27.0772998 -23.26416016 25.82446289 C-22.67266568 23.41913698 -22.09439429 21.01050952 -21.53125 18.59838867 C-19.67006284 11.08300363 -17.98561641 6.56984476 -11.74916077 1.76303101 C-7.76763797 -0.13010275 -4.35554829 -0.03199624 0 0 Z " fill="#FCFCFC" transform="translate(394.857666015625,401.61181640625)"/>
<path d="M0 0 C1.03882102 -0.00453111 2.07764204 -0.00906223 3.14794248 -0.01373065 C6.62784329 -0.02638816 10.10758787 -0.0247534 13.58750916 -0.02310181 C16.08271486 -0.02908605 18.57791871 -0.03589135 21.07312012 -0.04345703 C27.14600612 -0.05929555 33.21883072 -0.06556565 39.29173166 -0.06668179 C44.22719234 -0.0676328 49.16264022 -0.07174571 54.09809685 -0.07808304 C68.09305835 -0.09568738 82.08798921 -0.10492273 96.08296186 -0.10342209 C97.21394813 -0.10330222 97.21394813 -0.10330222 98.36778259 -0.10317993 C99.50014998 -0.10305729 99.50014998 -0.10305729 100.65539347 -0.10293217 C112.8992881 -0.10211866 125.14305989 -0.12127484 137.38691897 -0.14945666 C149.96078982 -0.17816977 162.53460071 -0.19199795 175.10850519 -0.19026911 C182.16714732 -0.18960485 189.22566054 -0.19511352 196.28427315 -0.21662521 C202.91876478 -0.23671519 209.55303017 -0.23617959 216.1875515 -0.22159195 C218.62525962 -0.21949438 221.06298453 -0.22426074 223.50066376 -0.23631287 C226.8226256 -0.25167623 230.14363582 -0.24251563 233.46557617 -0.22705078 C234.92004208 -0.24248147 234.92004208 -0.24248147 236.40389115 -0.25822389 C240.66850971 -0.21420305 243.05303481 -0.10001898 246.78060055 2.1225338 C248.66929626 4.26742554 248.66929626 4.26742554 249.09214783 7.08016968 C248.62608126 10.59315991 247.86639183 13.85192999 246.90367126 17.26351929 C246.5330672 18.59794714 246.16262823 19.93242086 245.79234314 21.26693726 C245.5094342 22.27128815 245.5094342 22.27128815 245.22080994 23.29592896 C244.38888079 26.26982707 243.60051137 29.25496655 242.80992126 32.24008179 C241.83067549 35.91251086 240.85130121 39.58490547 239.8714447 43.25717163 C238.17520274 49.6150407 236.48110588 55.97345167 234.79429626 62.33383179 C227.42280047 90.10308583 219.92183055 117.84134053 212.11485291 145.49154663 C209.85057496 153.54308323 207.69048399 161.62133079 205.54429626 169.70492554 C202.65681258 180.57946427 199.75456898 191.4470988 196.66929626 202.26742554 C196.350495 203.38625122 196.350495 203.38625122 196.0252533 204.52767944 C195.36988086 206.81738989 194.70844489 209.10524654 194.04429626 211.39242554 C193.85005066 212.06765259 193.65580505 212.74287964 193.45567322 213.43856812 C182.70132492 250.10008214 160.5181592 287.03926482 126.66441345 306.41488647 C122.08332205 308.8802746 117.39860146 311.10327343 112.66929626 313.26742554 C111.64062439 313.75082397 110.61195251 314.23422241 109.55210876 314.73226929 C93.22557831 322.01062772 75.30409386 324.57226233 57.5486908 324.55795288 C55.70684456 324.56802872 55.70684456 324.56802872 53.82778931 324.57830811 C50.50786201 324.59388481 47.18818501 324.60065262 43.86823893 324.60193968 C41.78728476 324.60337325 39.70635596 324.60766484 37.62540817 324.61293411 C30.34770314 324.63134109 23.07007068 324.63961476 15.79234314 324.63803101 C9.03357068 324.63682562 2.27511545 324.65802918 -4.48357666 324.68951833 C-10.31579794 324.71571286 -16.14791555 324.72639729 -21.98019516 324.72512019 C-25.45120946 324.72461236 -28.92193969 324.73019824 -32.39289474 324.75147629 C-36.25754411 324.77453218 -40.12175862 324.76531836 -43.98646545 324.75326538 C-45.12325241 324.76450439 -46.26003937 324.77574341 -47.43127441 324.787323 C-55.03214422 324.72713254 -60.15117583 323.53983481 -66.25648499 318.75961304 C-70.61650263 313.67497274 -73.96103489 308.08920512 -77.38221741 302.35702515 C-82.01317098 294.65197799 -86.96032991 287.17614407 -91.95570374 279.70492554 C-92.38083252 279.06748413 -92.8059613 278.43004272 -93.24397278 277.77328491 C-97.91142903 270.77728489 -102.62487384 263.81771439 -107.43617249 256.91976929 C-108.23829252 255.76373904 -109.04021764 254.60757352 -109.8419342 253.45126343 C-111.34409976 251.28483497 -112.86157637 249.13247262 -114.38978577 246.98397827 C-115.05735901 246.02306274 -115.72493225 245.06214722 -116.41273499 244.07211304 C-117.00288391 243.2366394 -117.59303284 242.40116577 -118.20106506 241.54037476 C-119.33070374 239.26742554 -119.33070374 239.26742554 -119.07557678 237.02963257 C-118.33070374 235.26742554 -118.33070374 235.26742554 -117.33070374 234.26742554 C-115.10706089 234.16688681 -112.88016456 234.13832259 -110.6542511 234.13612366 C-109.94794737 234.13400794 -109.24164363 234.13189223 -108.51393676 234.1297124 C-106.1289506 234.12368444 -103.74401694 234.12471457 -101.35902405 234.12557983 C-99.65585235 234.12254993 -97.95268147 234.11902895 -96.24951172 234.11505127 C-92.57068541 234.10714472 -88.89186889 234.10201058 -85.21303558 234.0987606 C-79.38729885 234.09285709 -73.56162346 234.07631978 -67.73591614 234.05741882 C-65.74161152 234.05108059 -63.74730686 234.04475498 -61.75300217 234.03844166 C-60.75387283 234.03527585 -59.75474349 234.03211004 -58.72533751 234.02884829 C-45.15841999 233.98679183 -31.59152967 233.95383648 -18.02455139 233.9414978 C-8.88094266 233.93309644 0.26251557 233.9105227 9.40604901 233.87214214 C14.24278811 233.85243876 19.07930252 233.83995754 23.91608429 233.84497643 C28.47653841 233.84965019 33.03656844 233.83566965 37.59693718 233.80796432 C39.26207271 233.80109615 40.9272525 233.80087832 42.59238625 233.8081646 C58.13093831 233.86923594 73.60018467 231.05856698 85.41929626 220.07992554 C91.40549905 213.50796067 95.55134689 206.17304268 98.62608337 197.85824585 C98.88496558 197.16121677 99.14384779 196.4641877 99.41057491 195.74603653 C102.02760576 188.53397743 103.96472952 181.19972437 105.79820251 173.75180054 C106.15798809 172.32022183 106.5185992 170.88885039 106.87997437 169.45767212 C107.81830018 165.73242863 108.74562189 162.00453694 109.6703949 158.27590942 C110.60011377 154.53570638 111.54045797 150.79817887 112.47984314 147.06039429 C115.08778055 136.6718578 117.68676478 126.28110522 120.23912048 115.87875366 C120.46856857 114.94799011 120.69801666 114.01722656 120.93441772 113.05825806 C121.34128576 111.40600029 121.74527683 109.75302962 122.14550781 108.09915161 C123.0816993 104.30233767 124.20664936 100.92404279 125.66929626 97.26742554 C126.65929626 92.64742554 127.64929626 88.02742554 128.66929626 83.26742554 C53.75929626 83.26742554 -21.15070374 83.26742554 -98.33070374 83.26742554 C-98.66070374 81.94742554 -98.99070374 80.62742554 -99.33070374 79.26742554 C-98.90402405 78.91293335 -98.47734436 78.55844116 -98.03773499 78.19320679 C-92.83959081 73.76674587 -88.0195856 69.0312587 -83.25184631 64.15145874 C-79.77630552 60.61997363 -76.15837055 57.32850177 -72.41029358 54.0887146 C-68.82154233 50.94571339 -65.36095097 47.66767355 -61.89320374 44.39242554 C-61.14820618 43.69061157 -60.40320862 42.98879761 -59.63563538 42.26571655 C-55.08921259 37.9696376 -50.63009919 33.60322786 -46.24085999 29.14633179 C-43.67411059 26.6215742 -40.96098511 24.29023605 -38.22914124 21.94711304 C-36.3509962 20.28537978 -34.58764858 18.55617029 -32.83070374 16.76742554 C-29.17482358 13.05311807 -25.29662306 9.64517886 -21.33070374 6.26742554 C-20.46445374 5.50430054 -19.59820374 4.74117554 -18.70570374 3.95492554 C-12.87704199 -0.18649202 -6.86487818 -0.02197812 0 0 Z " fill="#FCFCFC" transform="translate(784.3307037353516,449.7325744628906)"/>
<path d="M0 0 C2.20450027 3.3067504 2.22088784 3.63785831 1.625 7.3125 C0.99343708 10.02822057 0.05659094 12.42455959 -1 15 C-1.35412344 16.32796291 -1.68521554 17.66216607 -2 19 C-2.66152556 21.3347961 -3.32741333 23.66836622 -4 26 C-4.66 26 -5.32 26 -6 26 C-6.33 26.99 -6.66 27.98 -7 29 C-5.43561564 19.14142684 -3.02611654 9.50758602 0 0 Z " fill="#C9C8C9" transform="translate(334,569)"/>
<path d="M0 0 C0.66 0.33 1.32 0.66 2 1 C1.5968457 1.39268066 1.19369141 1.78536133 0.77832031 2.18994141 C-1.06985887 3.9961889 -2.90993354 5.81049002 -4.75 7.625 C-5.38421875 8.24246094 -6.0184375 8.85992188 -6.671875 9.49609375 C-10.33415648 13.12022646 -13.21928227 16.67443909 -16 21 C-18.25 22.375 -18.25 22.375 -20 23 C-20.33 22.01 -20.66 21.02 -21 20 C-20.57332031 19.64550781 -20.14664063 19.29101562 -19.70703125 18.92578125 C-12.75534157 13.00609499 -6.40692615 6.49482605 0 0 Z " fill="#DBDADC" transform="translate(706,509)"/>
<path d="M0 0 C2.0234375 3.7109375 2.0234375 3.7109375 1.8125 6.3125 C0.79290892 9.68499357 -0.55137593 12.78783357 -2 16 C-3.3805087 12.23331402 -2.59568159 9.55210827 -1.5625 5.75 C-1.27503906 4.67234375 -0.98757813 3.5946875 -0.69140625 2.484375 C-0.46324219 1.66453125 -0.23507812 0.8446875 0 0 Z M0 4 C1 7 1 7 1 7 Z " fill="#CBCBCD" transform="translate(311,655)"/>
<path d="M0 0 C0.66 0 1.32 0 2 0 C2 2.97 2 5.94 2 9 C0.02 9.99 0.02 9.99 -2 11 C-1.34 7.37 -0.68 3.74 0 0 Z " fill="#DFDEDF" transform="translate(341,542)"/>
<path d="M0 0 C1.85776765 3.13498292 2.20140476 5.37471432 2 9 C0.02 9.99 0.02 9.99 -2 11 C-1 3.57142857 -1 3.57142857 0 0 Z " fill="#E1E0E2" transform="translate(346,524)"/>
<path d="M0 0 C0.99 0.33 1.98 0.66 3 1 C0.69720335 3.30279665 -1.75930075 5.36476586 -4.24609375 7.46484375 C-5.903735 8.91574132 -7.46172518 10.42409154 -9 12 C-9.66 11.67 -10.32 11.34 -11 11 C-7.37 7.37 -3.74 3.74 0 0 Z " fill="#E1E1E2" transform="translate(505,508)"/>
<path d="M0 0 C0.66 0.66 1.32 1.32 2 2 C0.90716423 3.03295436 -0.19970579 4.05107835 -1.3125 5.0625 C-1.92738281 5.63097656 -2.54226563 6.19945312 -3.17578125 6.78515625 C-3.77777344 7.18605469 -4.37976563 7.58695313 -5 8 C-5.99 7.67 -6.98 7.34 -8 7 C-5.36 4.69 -2.72 2.38 0 0 Z " fill="#181819" transform="translate(937,735)"/>
<path d="M0 0 C0.66 0.33 1.32 0.66 2 1 C1.34 3.97 0.68 6.94 0 10 C-0.66 10 -1.32 10 -2 10 C-1.85950482 8.52031676 -1.71245174 7.04125484 -1.5625 5.5625 C-1.48128906 4.73878906 -1.40007812 3.91507813 -1.31640625 3.06640625 C-1 1 -1 1 0 0 Z " fill="#090809" transform="translate(311,648)"/>
<path d="M0 0 C2 2 2 2 2.375 4.9375 C2.189375 6.4534375 2.189375 6.4534375 2 8 C0.68 8.99 -0.64 9.98 -2 11 C-1.34 7.37 -0.68 3.74 0 0 Z " fill="#141515" transform="translate(993,604)"/>
<path d="M0 0 C1.46726798 3.81489674 0.43336419 6.29011622 -1 10 C-1.99 9.67 -2.98 9.34 -4 9 C-3.38461538 3.46153846 -3.38461538 3.46153846 -1.4375 1.125 C-0.963125 0.75375 -0.48875 0.3825 0 0 Z " fill="#232223" transform="translate(909,547)"/>
<path d="M0 0 C-0.309375 0.598125 -0.61875 1.19625 -0.9375 1.8125 C-2.10209704 4.08956772 -2.10209704 4.08956772 -3 7 C-4.65 7.33 -6.3 7.66 -8 8 C-8 7.01 -8 6.02 -8 5 C-2.65116279 0 -2.65116279 0 0 0 Z " fill="#E7E7E8" transform="translate(693,524)"/>
<path d="M0 0 C0.99 0 1.98 0 3 0 C2.40312566 3.34249629 1.26396123 5.46436342 -1 8 C-1.66 8 -2.32 8 -3 8 C-2.690625 7.236875 -2.38125 6.47375 -2.0625 5.6875 C-1.32106407 3.81210323 -0.63771783 1.91315348 0 0 Z " fill="#171818" transform="translate(965,693)"/>
<path d="M0 0 C0.66 0.33 1.32 0.66 2 1 C1.67 3.31 1.34 5.62 1 8 C0.01 7.67 -0.98 7.34 -2 7 C-1.125 2.25 -1.125 2.25 0 0 Z " fill="#151515" transform="translate(321,610)"/>
<path d="M0 0 C0.66 0.33 1.32 0.66 2 1 C1.34 2.98 0.68 4.96 0 7 C0.66 7.33 1.32 7.66 2 8 C0.68 8.99 -0.64 9.98 -2 11 C-1.125 3.375 -1.125 3.375 0 0 Z " fill="#2E2E2E" transform="translate(437,562)"/>
<path d="M0 0 C2.29777367 3.44666051 2.23697759 3.75586767 1.5 7.625 C1.2525 8.800625 1.2525 8.800625 1 10 C0.34 10 -0.32 10 -1 10 C-1.125 3.375 -1.125 3.375 0 0 Z " fill="#D9D9D9" transform="translate(334,569)"/>
<path d="M0 0 C1.32 0.33 2.64 0.66 4 1 C1.69 2.65 -0.62 4.3 -3 6 C-3 3 -3 3 -1.75 1.25 C-1.1725 0.8375 -0.595 0.425 0 0 Z " fill="#161516" transform="translate(553,461)"/>
<path d="M0 0 C0.66666667 2.66666667 1.33333333 5.33333333 2 8 C0.68 8.99 -0.64 9.98 -2 11 C-1.125 3.375 -1.125 3.375 0 0 Z " fill="#A8A8A9" transform="translate(294,719)"/>
<path d="M0 0 C0.66 0.33 1.32 0.66 2 1 C0.35 2.98 -1.3 4.96 -3 7 C-3.99 6.67 -4.98 6.34 -6 6 C-4.02 4.02 -2.04 2.04 0 0 Z " fill="#212121" transform="translate(564,567)"/>
<path d="M0 0 C1.61949011 2.57213134 2.04408751 3.67669159 1.625 6.75 C1.41875 7.4925 1.2125 8.235 1 9 C0.34 8.67 -0.32 8.34 -1 8 C-0.67 5.36 -0.34 2.72 0 0 Z " fill="#D6D5D6" transform="translate(355,489)"/>
<path d="M0 0 C0.66 0.66 1.32 1.32 2 2 C1.8125 4.5 1.8125 4.5 1 7 C0.01 7.66 -0.98 8.32 -2 9 C-1.34 6.03 -0.68 3.06 0 0 Z " fill="#DBDBDD" transform="translate(363,460)"/>
</svg>
